<svg width="400" height="250" viewBox="0 0 400 250" xmlns="http://www.w3.org/2000/svg">
  <defs>
    <linearGradient id="grad1" x1="0%" y1="0%" x2="100%" y2="100%">
      <stop offset="0%" style="stop-color:#667eea;stop-opacity:1" />
      <stop offset="100%" style="stop-color:#764ba2;stop-opacity:1" />
    </linearGradient>
  </defs>
  
  <!-- Background -->
  <rect width="400" height="250" fill="url(#grad1)" rx="12"/>
  
  <!-- iPhone -->
  <rect x="280" y="50" width="80" height="150" fill="#1f2937" rx="20"/>
  <rect x="285" y="55" width="70" height="140" fill="#f3f4f6" rx="16"/>
  
  <!-- App Screen -->
  <rect x="290" y="65" width="60" height="120" fill="white" rx="8"/>
  
  <!-- Health Dashboard -->
  <rect x="295" y="70" width="50" height="30" fill="#e8f5e8" rx="4"/>
  <text x="320" y="85" text-anchor="middle" fill="#10b981" font-size="8" font-weight="bold">HEALTH</text>
  <text x="320" y="95" text-anchor="middle" fill="#10b981" font-size="6">SCORE: 85</text>
  
  <!-- Blood Sugar Monitor -->
  <rect x="295" y="105" width="50" height="20" fill="#fef3c7" rx="3"/>
  <text x="320" y="118" text-anchor="middle" fill="#d97706" font-size="8" font-weight="bold">GLUCOSE</text>
  
  <!-- COVID Stats -->
  <rect x="295" y="130" width="50" height="25" fill="#fee2e2" rx="3"/>
  <text x="320" y="142" text-anchor="middle" fill="#dc2626" font-size="6" font-weight="bold">COVID-19</text>
  <text x="320" y="150" text-anchor="middle" fill="#dc2626" font-size="6">STATS</text>
  
  <!-- Health Icons -->
  <circle cx="120" cy="80" r="20" fill="rgba(255,255,255,0.2)" stroke="white" stroke-width="2"/>
  <text x="120" y="85" text-anchor="middle" fill="white" font-size="10" font-weight="bold">❤️</text>
  
  <circle cx="180" cy="80" r="20" fill="rgba(255,255,255,0.2)" stroke="white" stroke-width="2"/>
  <text x="180" y="85" text-anchor="middle" fill="white" font-size="10" font-weight="bold">🩸</text>
  
  <circle cx="240" cy="80" r="20" fill="rgba(255,255,255,0.2)" stroke="white" stroke-width="2"/>
  <text x="240" y="85" text-anchor="middle" fill="white" font-size="10" font-weight="bold">🦠</text>
  
  <!-- Health Graph -->
  <rect x="80" y="120" width="200" height="60" fill="rgba(255,255,255,0.1)" rx="8"/>
  
  <!-- Graph Line -->
  <path d="M90 150 L110 140 L130 145 L150 135 L170 130 L190 125 L210 120 L230 115 L250 110 L270 105" 
        stroke="white" stroke-width="2" fill="none"/>
  
  <!-- Data Points -->
  <circle cx="110" cy="140" r="3" fill="white"/>
  <circle cx="130" cy="145" r="3" fill="white"/>
  <circle cx="150" cy="135" r="3" fill="white"/>
  <circle cx="170" cy="130" r="3" fill="white"/>
  <circle cx="190" cy="125" r="3" fill="white"/>
  <circle cx="210" cy="120" r="3" fill="white"/>
  <circle cx="230" cy="115" r="3" fill="white"/>
  <circle cx="250" cy="110" r="3" fill="white"/>
  <circle cx="270" cy="105" r="3" fill="white"/>
  
  <!-- API Connection -->
  <rect x="80" y="200" width="80" height="25" fill="rgba(255,255,255,0.2)" rx="4"/>
  <text x="120" y="215" text-anchor="middle" fill="white" font-size="10" font-weight="bold">API</text>
  
  <!-- Project Title -->
  <text x="200" y="230" text-anchor="middle" fill="white" font-size="14" font-weight="bold">BioWell</text>
</svg> 